<?xml version="1.0" encoding="utf-8"?>
<!-- Svg Vector Icons : http://www.onlinewebfonts.com/icon -->
<!DOCTYPE svg PUBLIC "-//W3C//DTD SVG 1.1//EN" "http://www.w3.org/Graphics/SVG/1.1/DTD/svg11.dtd">
<svg version="1.1" xmlns="http://www.w3.org/2000/svg" xmlns:xlink="http://www.w3.org/1999/xlink" x="0px" y="0px" viewBox="0 0 1000 1000" enable-background="new 0 0 1000 1000" xml:space="preserve">
  <metadata> Svg Vector Icons : http://www.onlinewebfonts.com/icon </metadata>
  <g>
    <path d="M657.9,755.2c-5.6,22.3-34.1,71.1-79.4,136.7c12.4,2.9,24.3,6.1,36.3,8.3c22,4,44.1,7.1,66,11.1c7.2,1.3,10.9-1.3,14.7-7c44.2-65.7,79.8-135.9,109.7-209c11.7-28.6,21.7-57.9,32.5-86.9c1.1-2.9,2.2-5.9,3.5-9.4c23.7,8.2,46.8,16.1,71,24.5c-4.3,12.7-8.3,24.7-12.5,36.6c-36.3,101-81.6,197.5-141.9,286.6c-5,7.4-10.7,14.4-15.6,21.8c-11.4,17.1-27.2,22.4-47.1,20.5c-76.7-7.3-151.1-24.8-223.1-51.9C340.9,887.8,228,812.3,138.6,703.5c-10.7-13-13.8-27.5-6.8-42.8c6.7-14.8,19.7-21.5,35.6-21.7c68.1-0.9,133.8-14.5,197.2-38.6c57.4-21.7,109.8-51.8,150.1-99.4c11.7-13.8,21.2-29.4,32.2-44.9c20.8,11.7,42.1,23.7,65.7,37c-12.2,17.6-23,35.3-35.8,51.4c-31.2,39.4-70.5,69.3-114.1,93.6C397,674.7,326,695.7,252,707.7c-1.5,0.2-2.9,0.5-6.5,1.2c10.6,9.7,19.5,18.7,29.3,26.7c18.4,14.9,37,29.4,56.1,43.3c3.7,2.7,10.2,3.9,14.8,2.8c37.9-8.6,72.7-23.7,101.9-50.7c-2.5,13.3-26.5,47-60.1,84.5c21.1,10.5,42.5,19.8,62.4,31.4c25.8,15.1,50.4,11,75.7,0.1C568.3,828.6,604.9,801,640,771C645.7,766.1,651.2,761.1,657.9,755.2L657.9,755.2z M934.9,560.3c-120-53.4-239-106.3-359-159.7c9.9-23,25.5-40.6,46.5-53c35.1-20.7,71.9-23,109.2-6.8c47.9,20.9,95.8,41.9,143.3,63.9c55.8,25.8,82,83.9,65,141.6C938.6,550.8,936.8,555.2,934.9,560.3L934.9,560.3z M881.6,351.2c-37.8-16.8-75.1-33.4-112.3-50.1c-0.8-0.4-1.4-1.2-2.4-2.2c1.4-2.8,2.7-5.7,4.2-8.4c46.7-87.6,93.4-175.1,140.1-262.7c7.8-14.7,16.9-19.1,33.7-16.6c15.5,2.3,28.6,8.9,38.6,21c6.6,8,8.3,16.6,4.6,26.8c-34.9,95.9-69.5,191.9-104.2,287.9C883.4,348,882.7,349.1,881.6,351.2L881.6,351.2z M311.9,443.7c-1.3,52.1-45,94.6-95.9,93c-52-1.6-93.8-44.9-92.8-96.3c1.1-51,45-93.6,95.6-92.6C270.5,348.8,313.1,392.7,311.9,443.7L311.9,443.7z M66.8,159.4c31.3,0.1,56.5,25.7,56.3,56.8c-0.3,30.7-25.6,56-56.3,56.2C36,272.6,10,246.7,10,215.8C10,184.6,35.5,159.3,66.8,159.4L66.8,159.4z M199,234.6c0-21,16.8-37.7,37.8-37.6c20.8,0.1,37.9,17.4,37.5,38c-0.3,20.2-17.3,37.1-37.5,37.3C216.1,272.6,199,255.5,199,234.6L199,234.6z" fill="#dddddd" />
  </g>
</svg>
